<mxfile host="app.diagrams.net" modified="2024-02-22T03:01:09.503Z" agent="Mozilla/5.0 (Windows NT 10.0; Win64; x64) AppleWebKit/537.36 (KHTML, like Gecko) Chrome/121.0.0.0 Safari/537.36" version="23.1.5" etag="glsm5f3P8oGXp7--PcfO" type="github">
  <diagram name="Halaman-1" id="eT0BU6nG2JOigPGpwLOL">
    <mxGraphModel>
      <root>
        <mxCell id="0" />
        <mxCell id="1" parent="0" />
      </root>
    </mxGraphModel>
  </diagram>
</mxfile>
